<svg width="40" height="40" viewBox="0 0 40 40" fill="none" xmlns="http://www.w3.org/2000/svg">
<path d="M0 8C0 3.58172 3.58172 0 8 0H32C36.4183 0 40 3.58172 40 8V32C40 36.4183 36.4183 40 32 40H8C3.58172 40 0 36.4183 0 32V8Z" fill="#3C655A"/>
<g clip-path="url(#clip0_107_12678)">
<path d="M14.3308 16H25.6698C25.9582 16 26.2431 16.0623 26.5052 16.1827C26.7672 16.3031 27.0001 16.4788 27.1879 16.6976C27.3756 16.9164 27.5139 17.1733 27.5931 17.4506C27.6723 17.7279 27.6906 18.019 27.6468 18.304L26.3918 26.456C26.2829 27.1644 25.9239 27.8105 25.3798 28.2771C24.8357 28.7438 24.1426 29.0002 23.4258 29H16.5738C15.8572 29 15.1643 28.7434 14.6204 28.2768C14.0766 27.8102 13.7177 27.1643 13.6088 26.456L12.3538 18.304C12.31 18.019 12.3283 17.7279 12.4075 17.4506C12.4867 17.1733 12.625 16.9164 12.8128 16.6976C13.0005 16.4788 13.2334 16.3031 13.4954 16.1827C13.7575 16.0623 14.0424 16 14.3308 16Z" stroke="#DCEBE6" stroke-width="2" stroke-linecap="round" stroke-linejoin="round"/>
<path d="M17 19V14C17 13.2044 17.3161 12.4413 17.8787 11.8787C18.4413 11.3161 19.2044 11 20 11C20.7956 11 21.5587 11.3161 22.1213 11.8787C22.6839 12.4413 23 13.2044 23 14V19" stroke="#DCEBE6" stroke-width="2" stroke-linecap="round" stroke-linejoin="round"/>
</g>
<defs>
<clipPath id="clip0_107_12678">
<rect width="24" height="24" fill="white" transform="translate(8 8)"/>
</clipPath>
</defs>
</svg>
